<?xml version="1.0" encoding="UTF-8"?>
<svg id="Capa_1" data-name="Capa 1" xmlns="http://www.w3.org/2000/svg" version="1.1" viewBox="0 0 45.9 7.8">
  <defs>
    <style>
      .cls-1 {
        fill: #000;
        stroke-width: 0px;
      }
    </style>
  </defs>
  <path class="cls-1" d="M0,.4V.1C.6.1,1,0,1.3,0c.1,0,.2,0,.2,0h.2c.2.1.3.3.5.5,0,0,0,0,.1.1l1.2,1.4.2.2c.2.3.5.5.7.8s.6.6,1.2,1.3l1.4,1.6c.1.2.3.3.5.6h0c0-.6,0-.9,0-.9v-.3s0-.6,0-.6v-.2c0-.2,0-.7,0-1.5,0-.1,0-.3,0-.6s0-.6,0-.8c0-.4,0-.7,0-.8,0,0-.2,0-.5-.2,0,0-.2,0-.3,0-.2,0-.3,0-.3,0s0,0,0,0c0,0,0-.1,0-.2.1,0,.2,0,.3,0s.2,0,.4,0,.3,0,.4,0,.5,0,.8,0c.2,0,.4,0,.4,0h0v.2c0,0-.2,0-.3,0s-.2,0-.3,0c-.1,0-.2,0-.2.1,0,0-.1.2-.1.3v1.8c0,0,.1.8.1.8v1.4c0,.8,0,1.5,0,2.1s0,.4,0,.8h-.3c-.1-.1-.6-.6-1.4-1.5-.2-.2-.3-.3-.4-.4l-.5-.6c-.2-.2-.3-.3-.4-.4h-.1c-.4-.6-1-1.2-1.7-1.9-.2-.2-.4-.5-.8-.9-.2-.3-.4-.4-.4-.5s-.1-.1-.2-.2v.2c0,.8,0,1.8,0,3.2v1.9c0,.2,0,.3,0,.5h.2c.4,0,.7.1,1.1.2,0,0,0,0,0,0v.2c0,0-.1,0-.2,0s0,0-.2,0c-.4,0-.9,0-1.4,0s-.7,0-1,0h-.2v-.2h.2c0,0,.3-.1.3-.1.2,0,.4,0,.5-.1,0,0,.1,0,.2-.1,0-.3,0-.7,0-1.2s0-.7,0-1.3v-2.5c0-.7,0-1.2,0-1.3,0,0,0-.1-.2-.2-.2-.1-.3-.2-.6-.2s-.4,0-.5,0h0Z"/>
  <path class="cls-1" d="M45.8,4.5h-2.4s-.4,0-.4,0c-.2,0-.4,0-.6,0,0,.1,0,.2,0,.2h0v.4c0,.2,0,.5.2.9s.4.6.6.8c.3.2.6.3,1.1.3.2,0,.4,0,.5,0s.3-.1.6-.3l.4-.3v.2s0,0,0,0c-.2.2-.4.4-.7.6s-.5.3-.8.4c-.1,0-.4,0-.7,0s-.6,0-.8-.2c-.4-.2-.7-.4-.9-.8s-.3-.8-.3-1.4,0-.4,0-.7.2-.6.3-.9c.1-.2.2-.4.4-.5.2-.2.4-.3.6-.4.2-.1.6-.2.9-.2s.7,0,.9.2c.3.2.6.4.7.7s.2.5.2.8h0q0,0,0,0ZM42.3,1.1v-.5h.7c.4,0,1.2,0,2.4,0,0,.1,0,.2,0,.3s0,.2,0,.3c-.8,0-1.2,0-1.3,0-1,0-1.6,0-1.8,0ZM42.5,4.3h.3c.2,0,.8,0,1.8,0,.2,0,.2,0,.3,0,0,0,.1-.1.1-.2,0-.1,0-.3-.1-.4s-.2-.3-.4-.4-.4-.1-.6-.1c-.4,0-.8.2-1.1.5-.2.3-.3.5-.3.7Z"/>
  <path class="cls-1" d="M9.5,5.2c0-.3,0-.6.2-.8s.3-.6.5-.8.5-.4.7-.5c.4-.2.8-.2,1.3-.2.7,0,1.3.2,1.8.8s.7,1.1.7,1.8-.3,1.2-.8,1.7-1.2.7-1.9.7-.9-.1-1.4-.4c-.3-.2-.6-.5-.8-.8s-.3-.8-.4-1.3ZM12.1,7.5c.3,0,.6,0,.9-.2s.5-.4.7-.8.2-.8.2-1.2,0-.7-.2-1.1c-.1-.4-.3-.7-.6-.9s-.6-.3-.9-.3-.5,0-.8.2-.5.3-.7.7-.3.8-.3,1.5.2,1.2.5,1.6.7.6,1.2.6h0ZM10.8.9c0-.2,0-.3.2-.4s.2-.2.3-.2.3,0,.4.2.2.2.2.4,0,.3-.2.4-.2.2-.3.2-.2,0-.3-.2-.2-.2-.2-.3h0ZM12.8.9c0-.2,0-.3.2-.4s.2-.2.4-.2.3,0,.4.2.2.2.2.4,0,.3-.2.4-.2.2-.4.2-.2,0-.3-.2-.2-.2-.2-.3h0Z"/>
  <path class="cls-1" d="M14.9,2.9h2.2s0,0,0,0,0,0,0,0c0,0,0,.1,0,.2-.3,0-.4,0-.5,0s0,.1,0,.2,0,0,0,.1c0,0,0,.2.2.4.1.3.4.8.7,1.5l.7,1.4c.4-.7.7-1.3,1-1.9l-.4-.9c0,0,0-.2-.2-.4s-.1-.3-.1-.3-.2,0-.4-.1-.3,0-.4-.1h0s0,0,0-.1c0,0,.2,0,.2,0h2.4v.2c0,0-.2,0-.3,0-.3,0-.5,0-.6.2,0,0,0,0,0,.1,0,0,0,.2,0,.3,0,0,0,.2.1.4l.6,1.7c.2.5.3.8.4,1,.2-.3.4-.8.7-1.6,0-.3.2-.6.4-1,.1-.2.2-.4.2-.6s0-.2,0-.2c0,0-.2-.1-.5-.2-.2,0-.2,0-.3,0,0,0,0,0,0,0,0,0,0,0,0-.1h1.3c.1,0,.2,0,.4,0h.3s0,0,0,0,0,0,0,0,0,0,0,.1c-.2,0-.3,0-.4.1s-.3.2-.4.5l-1.1,2.5c0,.2-.3.6-.5,1.1,0,0,0,.2-.1.2,0,0,0,0,0,.1s0,0,0,0,0,0-.1,0c-.1-.2-.3-.8-.7-1.8,0-.3-.2-.5-.3-.7-.6,1.3-1.1,2.1-1.2,2.4,0,0,0,0-.1,0s0,0-.1,0l-1.1-2.3-1-2c0-.1-.1-.2-.2-.2,0,0-.2,0-.3-.1,0,0-.2,0-.2,0h0v-.2h0Z"/>
  <path class="cls-1" d="M23.3,7.7h0c.1-.2.3-.2.5-.3.3,0,.4,0,.5-.1s.1,0,.2-.2c0-.1,0-.3,0-.4v-1.3c0-.2,0-.4,0-.8,0-.3,0-.5,0-.5v-1.6c0-.2,0-.5,0-.8,0-.3,0-.5,0-.6,0-.3,0-.5,0-.6s0,0,0-.1-.2,0-.4,0c-.2,0-.3,0-.4,0,0,0,0,0,0-.1h0c0-.1.2-.1.2-.1h.6c.4,0,.8,0,1.2,0,.2,0,.5,0,1,0,0,0,0,0,0,0s0,0,0,0,0,0,0,0c-.5,0-.8.1-.9.2s-.1.3-.1.6c0,.6,0,1.3,0,2v.6s.3,0,.8,0c.1,0,.2,0,.2,0h2.9c.2,0,.3,0,.3,0,0-.7,0-1.3,0-2s0-1,0-1.1c0,0,0-.1,0-.1,0,0-.2,0-.6,0,0,0-.1,0-.2,0,0,0,0-.1,0-.2.1,0,.2,0,.2,0h.4c.4,0,.7,0,1.1,0s.6,0,1.2,0c0,0,0,.2,0,.2-.2,0-.3,0-.5.1-.1,0-.2,0-.3,0,0,0-.1.2-.1.3h0v4c0,.2,0,.5,0,.9v.8c0,.3,0,.5,0,.6,0,0,0,0,.1.1h.5c.2.2.4.2.4.2s0,0,0,.1h0c0,0,0,0,0,0h0c-.4,0-.9-.1-1.3-.1s-.6,0-.8,0-.5,0-1,.1c0,0,0,0,0-.1,0,0,0,0,0-.1.1,0,.3-.1.6-.2.2,0,.3,0,.5-.2s.1-.2.1-.3v-.8c0-.2,0-.4,0-.4,0-.3,0-.8,0-1.4,0,0,0,0,0,0-.1,0-.6,0-1.6,0-.2,0-.3,0-.4,0s-.3,0-.6,0-.6,0-.8,0h-.7c0,0-.2,0-.2,0s0,0,0,.2v.4c0,0,0,.4,0,1.1v.3c0,.5,0,.9,0,1.1,0,0,0,.1.1.2,0,0,.2,0,.5.1.2,0,.3,0,.4.1h0c0,0,0,0,0,.1,0,0,0,0,0,0h-.4c-.2,0-.4,0-.7,0-.2,0-.4,0-.5,0-.2,0-.7,0-1.2,0h-.3Z"/>
  <path class="cls-1" d="M36.8,4.5h-2.3s-.4,0-.4,0c-.2,0-.4,0-.6,0,0,.1,0,.2,0,.2h0v.4c0,.2,0,.5.2.9s.4.6.6.8.6.3,1.1.3c.2,0,.4,0,.5,0s.3-.1.6-.3l.4-.3v.2s0,0,0,0c-.2.2-.4.4-.7.6s-.5.3-.8.4c-.1,0-.3,0-.7,0s-.6,0-.8-.2c-.4-.2-.7-.4-.9-.8s-.3-.8-.3-1.4,0-.4,0-.7.2-.6.3-.9c.1-.2.2-.4.4-.5.2-.2.4-.3.6-.4.2-.1.6-.2.9-.2s.7,0,.9.2c.3.2.6.4.7.7s.2.5.2.8h0q0,0,0,0ZM33.5,4.3h.3c.2,0,.8,0,1.8,0,.2,0,.2,0,.3,0,0,0,.1-.1.1-.2,0-.1,0-.3-.1-.4s-.2-.3-.4-.4-.3-.1-.6-.1c-.4,0-.8.2-1.1.5-.2.3-.3.5-.3.7ZM34.5.9c0-.2,0-.3.2-.4s.2-.2.4-.2.3,0,.4.2.2.2.2.4,0,.3-.2.4-.2.2-.4.2-.2,0-.3-.2-.2-.2-.2-.3h0Z"/>
  <path class="cls-1" d="M37.4,7.6h0c0,0,0-.2,0-.2h.3c0,0,.5-.2.5-.2,0,0,0,0,0,0,0,0,0-.2,0-.4,0-1.3,0-2.1,0-2.3s0-.3-.1-.4-.2,0-.4-.1c-.1,0-.2,0-.3,0v-.2c.4-.2.7-.3.8-.4.2-.2.4-.4.5-.7h.2c0,.2,0,.6,0,1.3h0v.2c.2-.3.3-.5.6-.7h.1c0-.2.1-.2.2-.3.3-.2.5-.2.6-.2s.3,0,.4.2.2.3.2.4,0,.2-.1.3c-.1,0-.2.2-.4.2s-.2,0-.4,0-.3,0-.4,0c-.1,0-.2,0-.2,0-.1,0-.2.3-.4.5-.1.2-.2.4-.2.6v1s0,1.2,0,1.2c0,.1,0,.2,0,.3,0,0,0,0,.1,0,.4,0,.7,0,.8,0,0,0,0,0,.1,0,.2,0,.3,0,.3,0,0,0,0,0,0,0s0,0,0,0h-.9s-.4,0-.4,0h-.9s-1,0-1,0h0Z"/>
</svg>